<mxfile host="app.diagrams.net" modified="2022-03-02T04:30:58.071Z" agent="5.0 (Macintosh; Intel Mac OS X 10_15_7) AppleWebKit/537.36 (KHTML, like Gecko) Chrome/98.0.4758.80 Safari/537.36" etag="xiv7YbtwI08-l3ptrMpJ" version="16.6.4" type="github" pages="2">
  <diagram id="gu0fIiZsyZpP-8pOVgPo" name="Page-1">
    <mxGraphModel dx="1426" dy="746" grid="1" gridSize="10" guides="1" tooltips="1" connect="1" arrows="1" fold="1" page="1" pageScale="1" pageWidth="827" pageHeight="1169" math="0" shadow="0">
      <root>
        <mxCell id="0" />
        <mxCell id="1" parent="0" />
        <mxCell id="YdMrerSNMZAgxP6pczuO-19" style="edgeStyle=orthogonalEdgeStyle;rounded=0;orthogonalLoop=1;jettySize=auto;html=1;exitX=0.75;exitY=0;exitDx=0;exitDy=0;" edge="1" parent="1" source="YdMrerSNMZAgxP6pczuO-1">
          <mxGeometry relative="1" as="geometry">
            <mxPoint x="408" y="60" as="targetPoint" />
          </mxGeometry>
        </mxCell>
        <mxCell id="YdMrerSNMZAgxP6pczuO-22" value="" style="edgeStyle=orthogonalEdgeStyle;rounded=0;orthogonalLoop=1;jettySize=auto;html=1;" edge="1" parent="1" source="YdMrerSNMZAgxP6pczuO-1" target="YdMrerSNMZAgxP6pczuO-2">
          <mxGeometry relative="1" as="geometry" />
        </mxCell>
        <mxCell id="YdMrerSNMZAgxP6pczuO-1" value="oracle服务购买者制作SLA proposal" style="rounded=1;whiteSpace=wrap;html=1;" vertex="1" parent="1">
          <mxGeometry x="320" y="40" width="160" height="50" as="geometry" />
        </mxCell>
        <mxCell id="YdMrerSNMZAgxP6pczuO-23" style="edgeStyle=orthogonalEdgeStyle;rounded=0;orthogonalLoop=1;jettySize=auto;html=1;exitX=0;exitY=0.5;exitDx=0;exitDy=0;entryX=0.5;entryY=0;entryDx=0;entryDy=0;" edge="1" parent="1" source="YdMrerSNMZAgxP6pczuO-2" target="YdMrerSNMZAgxP6pczuO-3">
          <mxGeometry relative="1" as="geometry" />
        </mxCell>
        <mxCell id="YdMrerSNMZAgxP6pczuO-26" value="Y" style="edgeLabel;html=1;align=center;verticalAlign=middle;resizable=0;points=[];" vertex="1" connectable="0" parent="YdMrerSNMZAgxP6pczuO-23">
          <mxGeometry x="0.1455" y="-1" relative="1" as="geometry">
            <mxPoint as="offset" />
          </mxGeometry>
        </mxCell>
        <mxCell id="YdMrerSNMZAgxP6pczuO-25" style="edgeStyle=orthogonalEdgeStyle;rounded=0;orthogonalLoop=1;jettySize=auto;html=1;entryX=0.5;entryY=0;entryDx=0;entryDy=0;exitX=1;exitY=0.5;exitDx=0;exitDy=0;" edge="1" parent="1" source="YdMrerSNMZAgxP6pczuO-2" target="YdMrerSNMZAgxP6pczuO-8">
          <mxGeometry relative="1" as="geometry">
            <mxPoint x="510" y="220" as="targetPoint" />
          </mxGeometry>
        </mxCell>
        <mxCell id="YdMrerSNMZAgxP6pczuO-27" value="N" style="edgeLabel;html=1;align=center;verticalAlign=middle;resizable=0;points=[];" vertex="1" connectable="0" parent="YdMrerSNMZAgxP6pczuO-25">
          <mxGeometry x="0.1455" y="-4" relative="1" as="geometry">
            <mxPoint as="offset" />
          </mxGeometry>
        </mxCell>
        <mxCell id="YdMrerSNMZAgxP6pczuO-2" value="手动选择oracle服务商" style="rhombus;whiteSpace=wrap;html=1;" vertex="1" parent="1">
          <mxGeometry x="340" y="120" width="120" height="80" as="geometry" />
        </mxCell>
        <mxCell id="YdMrerSNMZAgxP6pczuO-28" value="" style="edgeStyle=orthogonalEdgeStyle;rounded=0;orthogonalLoop=1;jettySize=auto;html=1;" edge="1" parent="1" source="YdMrerSNMZAgxP6pczuO-3" target="YdMrerSNMZAgxP6pczuO-6">
          <mxGeometry relative="1" as="geometry" />
        </mxCell>
        <mxCell id="YdMrerSNMZAgxP6pczuO-3" value="从off-chain server list里面选择服务商" style="rounded=1;whiteSpace=wrap;html=1;" vertex="1" parent="1">
          <mxGeometry x="240" y="230" width="120" height="60" as="geometry" />
        </mxCell>
        <mxCell id="YdMrerSNMZAgxP6pczuO-29" value="" style="edgeStyle=orthogonalEdgeStyle;rounded=0;orthogonalLoop=1;jettySize=auto;html=1;" edge="1" parent="1" source="YdMrerSNMZAgxP6pczuO-6" target="YdMrerSNMZAgxP6pczuO-7">
          <mxGeometry relative="1" as="geometry" />
        </mxCell>
        <mxCell id="YdMrerSNMZAgxP6pczuO-6" value="和服务商达成off-chain SLA协议" style="rounded=1;whiteSpace=wrap;html=1;" vertex="1" parent="1">
          <mxGeometry x="240" y="330" width="120" height="60" as="geometry" />
        </mxCell>
        <mxCell id="YdMrerSNMZAgxP6pczuO-35" style="edgeStyle=orthogonalEdgeStyle;rounded=0;orthogonalLoop=1;jettySize=auto;html=1;" edge="1" parent="1" source="YdMrerSNMZAgxP6pczuO-7" target="YdMrerSNMZAgxP6pczuO-13">
          <mxGeometry relative="1" as="geometry">
            <Array as="points">
              <mxPoint x="300" y="710" />
              <mxPoint x="400" y="710" />
            </Array>
          </mxGeometry>
        </mxCell>
        <mxCell id="YdMrerSNMZAgxP6pczuO-7" value="将off-chain达成的SLA协议提交到on-chain" style="rounded=1;whiteSpace=wrap;html=1;" vertex="1" parent="1">
          <mxGeometry x="240" y="430" width="120" height="60" as="geometry" />
        </mxCell>
        <mxCell id="YdMrerSNMZAgxP6pczuO-30" value="" style="edgeStyle=orthogonalEdgeStyle;rounded=0;orthogonalLoop=1;jettySize=auto;html=1;" edge="1" parent="1" source="YdMrerSNMZAgxP6pczuO-8" target="YdMrerSNMZAgxP6pczuO-9">
          <mxGeometry relative="1" as="geometry" />
        </mxCell>
        <mxCell id="YdMrerSNMZAgxP6pczuO-8" value="提交SLA proposal到order-matching contract" style="rounded=1;whiteSpace=wrap;html=1;" vertex="1" parent="1">
          <mxGeometry x="440" y="230" width="120" height="60" as="geometry" />
        </mxCell>
        <mxCell id="YdMrerSNMZAgxP6pczuO-31" value="" style="edgeStyle=orthogonalEdgeStyle;rounded=0;orthogonalLoop=1;jettySize=auto;html=1;" edge="1" parent="1" source="YdMrerSNMZAgxP6pczuO-9" target="YdMrerSNMZAgxP6pczuO-10">
          <mxGeometry relative="1" as="geometry" />
        </mxCell>
        <mxCell id="YdMrerSNMZAgxP6pczuO-9" value="&amp;nbsp;order-matching contract triggers a log" style="rounded=1;whiteSpace=wrap;html=1;" vertex="1" parent="1">
          <mxGeometry x="440" y="330" width="120" height="60" as="geometry" />
        </mxCell>
        <mxCell id="YdMrerSNMZAgxP6pczuO-32" value="" style="edgeStyle=orthogonalEdgeStyle;rounded=0;orthogonalLoop=1;jettySize=auto;html=1;" edge="1" parent="1" source="YdMrerSNMZAgxP6pczuO-10" target="YdMrerSNMZAgxP6pczuO-11">
          <mxGeometry relative="1" as="geometry" />
        </mxCell>
        <mxCell id="YdMrerSNMZAgxP6pczuO-10" value="服务商monitor log,进行bid和质押罚金" style="rounded=1;whiteSpace=wrap;html=1;" vertex="1" parent="1">
          <mxGeometry x="440" y="430" width="120" height="60" as="geometry" />
        </mxCell>
        <mxCell id="YdMrerSNMZAgxP6pczuO-34" value="" style="edgeStyle=orthogonalEdgeStyle;rounded=0;orthogonalLoop=1;jettySize=auto;html=1;" edge="1" parent="1" source="YdMrerSNMZAgxP6pczuO-11" target="YdMrerSNMZAgxP6pczuO-12">
          <mxGeometry relative="1" as="geometry" />
        </mxCell>
        <mxCell id="YdMrerSNMZAgxP6pczuO-11" value="bid window过期并且SLA收集足够多的bid后，选择需求的服务商，未被选中的退款" style="rounded=1;whiteSpace=wrap;html=1;" vertex="1" parent="1">
          <mxGeometry x="440" y="525" width="120" height="60" as="geometry" />
        </mxCell>
        <mxCell id="YdMrerSNMZAgxP6pczuO-36" style="edgeStyle=orthogonalEdgeStyle;rounded=0;orthogonalLoop=1;jettySize=auto;html=1;entryX=0.5;entryY=0;entryDx=0;entryDy=0;" edge="1" parent="1" source="YdMrerSNMZAgxP6pczuO-12" target="YdMrerSNMZAgxP6pczuO-13">
          <mxGeometry relative="1" as="geometry" />
        </mxCell>
        <mxCell id="YdMrerSNMZAgxP6pczuO-12" value="order-matching contract 处罚SLA record的log,通知选中的服务商" style="rounded=1;whiteSpace=wrap;html=1;" vertex="1" parent="1">
          <mxGeometry x="440" y="620" width="120" height="60" as="geometry" />
        </mxCell>
        <mxCell id="YdMrerSNMZAgxP6pczuO-37" value="" style="edgeStyle=orthogonalEdgeStyle;rounded=0;orthogonalLoop=1;jettySize=auto;html=1;" edge="1" parent="1" source="YdMrerSNMZAgxP6pczuO-13" target="YdMrerSNMZAgxP6pczuO-15">
          <mxGeometry relative="1" as="geometry" />
        </mxCell>
        <mxCell id="YdMrerSNMZAgxP6pczuO-13" value="被选中的服务商，根据oracle record的要求，执行SLA协议，并上报结果" style="rounded=1;whiteSpace=wrap;html=1;" vertex="1" parent="1">
          <mxGeometry x="340" y="740" width="120" height="60" as="geometry" />
        </mxCell>
        <mxCell id="YdMrerSNMZAgxP6pczuO-38" value="" style="edgeStyle=orthogonalEdgeStyle;rounded=0;orthogonalLoop=1;jettySize=auto;html=1;" edge="1" parent="1" source="YdMrerSNMZAgxP6pczuO-15" target="YdMrerSNMZAgxP6pczuO-16">
          <mxGeometry relative="1" as="geometry" />
        </mxCell>
        <mxCell id="YdMrerSNMZAgxP6pczuO-15" value="&amp;nbsp;上报结果都传输给aggregating contract" style="rounded=1;whiteSpace=wrap;html=1;" vertex="1" parent="1">
          <mxGeometry x="340" y="840" width="120" height="60" as="geometry" />
        </mxCell>
        <mxCell id="YdMrerSNMZAgxP6pczuO-39" value="" style="edgeStyle=orthogonalEdgeStyle;rounded=0;orthogonalLoop=1;jettySize=auto;html=1;" edge="1" parent="1" source="YdMrerSNMZAgxP6pczuO-16" target="YdMrerSNMZAgxP6pczuO-18">
          <mxGeometry relative="1" as="geometry" />
        </mxCell>
        <mxCell id="YdMrerSNMZAgxP6pczuO-16" value="&amp;nbsp;aggregating contract记录结果并计算一个 weighted answer" style="rounded=1;whiteSpace=wrap;html=1;" vertex="1" parent="1">
          <mxGeometry x="340" y="930" width="120" height="60" as="geometry" />
        </mxCell>
        <mxCell id="YdMrerSNMZAgxP6pczuO-40" value="" style="edgeStyle=orthogonalEdgeStyle;rounded=0;orthogonalLoop=1;jettySize=auto;html=1;" edge="1" parent="1" source="YdMrerSNMZAgxP6pczuO-17" target="YdMrerSNMZAgxP6pczuO-18">
          <mxGeometry relative="1" as="geometry" />
        </mxCell>
        <mxCell id="YdMrerSNMZAgxP6pczuO-17" value="每个上报结果的有效性报告给reputation contract" style="rounded=1;whiteSpace=wrap;html=1;" vertex="1" parent="1">
          <mxGeometry x="340" y="1020" width="120" height="60" as="geometry" />
        </mxCell>
        <mxCell id="YdMrerSNMZAgxP6pczuO-18" value="&amp;nbsp;weight answer返回给USER-SC的指定合约函数" style="rounded=1;whiteSpace=wrap;html=1;" vertex="1" parent="1">
          <mxGeometry x="340" y="1109" width="120" height="60" as="geometry" />
        </mxCell>
      </root>
    </mxGraphModel>
  </diagram>
  <diagram id="8H1ESK5gDjF1mlNAqLFi" name="Page-2">
    <mxGraphModel dx="1426" dy="1915" grid="1" gridSize="10" guides="1" tooltips="1" connect="1" arrows="1" fold="1" page="1" pageScale="1" pageWidth="827" pageHeight="1169" math="0" shadow="0">
      <root>
        <mxCell id="JYxYyINiAp-uz-LpOoL5-0" />
        <mxCell id="JYxYyINiAp-uz-LpOoL5-1" parent="JYxYyINiAp-uz-LpOoL5-0" />
        <mxCell id="JYxYyINiAp-uz-LpOoL5-2" value="" style="rounded=1;whiteSpace=wrap;html=1;" vertex="1" parent="JYxYyINiAp-uz-LpOoL5-1">
          <mxGeometry x="210" y="-520" width="530" height="150" as="geometry" />
        </mxCell>
        <mxCell id="JYxYyINiAp-uz-LpOoL5-10" value="" style="edgeStyle=orthogonalEdgeStyle;rounded=0;orthogonalLoop=1;jettySize=auto;html=1;fontSize=18;" edge="1" parent="JYxYyINiAp-uz-LpOoL5-1" source="JYxYyINiAp-uz-LpOoL5-3" target="JYxYyINiAp-uz-LpOoL5-4">
          <mxGeometry relative="1" as="geometry" />
        </mxCell>
        <mxCell id="JYxYyINiAp-uz-LpOoL5-3" value="subtask-1" style="rounded=1;whiteSpace=wrap;html=1;" vertex="1" parent="JYxYyINiAp-uz-LpOoL5-1">
          <mxGeometry x="250" y="-475" width="100" height="55" as="geometry" />
        </mxCell>
        <mxCell id="JYxYyINiAp-uz-LpOoL5-4" value="subtask-2" style="rounded=1;whiteSpace=wrap;html=1;" vertex="1" parent="JYxYyINiAp-uz-LpOoL5-1">
          <mxGeometry x="390" y="-475" width="100" height="55" as="geometry" />
        </mxCell>
        <mxCell id="JYxYyINiAp-uz-LpOoL5-5" value="subtask-n" style="rounded=1;whiteSpace=wrap;html=1;" vertex="1" parent="JYxYyINiAp-uz-LpOoL5-1">
          <mxGeometry x="600" y="-475" width="100" height="55" as="geometry" />
        </mxCell>
        <mxCell id="JYxYyINiAp-uz-LpOoL5-6" value="assignment&lt;br&gt;" style="text;html=1;resizable=0;autosize=1;align=center;verticalAlign=middle;points=[];fillColor=none;strokeColor=none;rounded=0;" vertex="1" parent="JYxYyINiAp-uz-LpOoL5-1">
          <mxGeometry x="220" y="-510" width="80" height="20" as="geometry" />
        </mxCell>
        <mxCell id="JYxYyINiAp-uz-LpOoL5-11" value="" style="edgeStyle=orthogonalEdgeStyle;rounded=0;orthogonalLoop=1;jettySize=auto;html=1;fontSize=18;" edge="1" parent="JYxYyINiAp-uz-LpOoL5-1" source="JYxYyINiAp-uz-LpOoL5-8" target="JYxYyINiAp-uz-LpOoL5-5">
          <mxGeometry relative="1" as="geometry" />
        </mxCell>
        <mxCell id="JYxYyINiAp-uz-LpOoL5-8" value="&lt;font style=&quot;font-size: 18px&quot;&gt;... ...&lt;/font&gt;" style="text;html=1;resizable=0;autosize=1;align=center;verticalAlign=middle;points=[];fillColor=none;strokeColor=none;rounded=0;" vertex="1" parent="JYxYyINiAp-uz-LpOoL5-1">
          <mxGeometry x="515" y="-457.5" width="50" height="20" as="geometry" />
        </mxCell>
        <mxCell id="JYxYyINiAp-uz-LpOoL5-9" value="" style="endArrow=classic;html=1;rounded=0;fontSize=18;" edge="1" parent="JYxYyINiAp-uz-LpOoL5-1">
          <mxGeometry width="50" height="50" relative="1" as="geometry">
            <mxPoint x="190" y="-450" as="sourcePoint" />
            <mxPoint x="250" y="-450" as="targetPoint" />
          </mxGeometry>
        </mxCell>
        <mxCell id="JYxYyINiAp-uz-LpOoL5-12" value="" style="endArrow=classic;html=1;rounded=0;fontSize=18;" edge="1" parent="JYxYyINiAp-uz-LpOoL5-1">
          <mxGeometry width="50" height="50" relative="1" as="geometry">
            <mxPoint x="700" y="-448" as="sourcePoint" />
            <mxPoint x="760" y="-448" as="targetPoint" />
          </mxGeometry>
        </mxCell>
        <mxCell id="JYxYyINiAp-uz-LpOoL5-13" value="input" style="text;html=1;resizable=0;autosize=1;align=center;verticalAlign=middle;points=[];fillColor=none;strokeColor=none;rounded=0;fontSize=18;" vertex="1" parent="JYxYyINiAp-uz-LpOoL5-1">
          <mxGeometry x="140" y="-467.5" width="50" height="30" as="geometry" />
        </mxCell>
        <mxCell id="JYxYyINiAp-uz-LpOoL5-14" value="result" style="text;html=1;resizable=0;autosize=1;align=center;verticalAlign=middle;points=[];fillColor=none;strokeColor=none;rounded=0;fontSize=18;" vertex="1" parent="JYxYyINiAp-uz-LpOoL5-1">
          <mxGeometry x="767" y="-467.5" width="60" height="30" as="geometry" />
        </mxCell>
      </root>
    </mxGraphModel>
  </diagram>
</mxfile>
